<svg width="405" height="356" viewBox="0 0 405 356" fill="none" xmlns="http://www.w3.org/2000/svg">
<path d="M0 97.0061V108.088H78.8229V97.0061H0ZM89.9977 97.0061V108.088H202.335C202.335 108.088 190.86 97.0061 175.664 97.0061H89.9977ZM224.369 97.0061V108.088H292.322L288.29 97.0061H224.369ZM341.053 97.0061L337.021 108.088H404.369V97.0061H341.053ZM0 118.56V129.641H78.8229V118.56H0ZM89.9977 118.575V129.636H215.36C215.36 129.636 213.897 121.108 211.344 118.575H89.9977ZM224.369 118.575V129.636H299.832L296.1 118.575H224.369ZM332.984 118.575L329.252 129.636H404.364V118.575H332.984ZM22.6545 140.113V151.21H56.7939V140.113H22.6545ZM112.652 140.113V151.21H146.792V140.113H112.652ZM180.001 140.113V151.21H214.14C214.14 151.21 216.311 145.349 216.311 140.113H180.001ZM247.028 140.113V151.21H307.502L303.471 140.113H247.028ZM325.557 140.113L321.505 151.21H382.33V140.113H325.557ZM22.6597 161.682V172.764H56.799V161.682H22.6597ZM112.657 161.682V172.764H199.854C199.854 172.764 207.142 167.078 209.467 161.682H112.657ZM247.028 161.682V172.764H281.168V166.593L283.339 172.764H345.88L348.206 166.593V172.764H382.345V161.682H318.253L314.852 171.069L311.441 161.682H247.028ZM22.6545 183.236V194.318H56.7939V183.236H22.6545ZM112.652 183.236V194.318H209.462C207.136 188.942 199.848 183.236 199.848 183.236H112.652ZM247.023 183.236V194.318H281.163V183.236H247.023ZM287.365 183.236L291.5 194.318H338.391L342.319 183.236H287.365ZM348.191 183.236V194.318H382.33V183.236H348.191ZM22.6648 204.789V215.871H56.8042V204.789H22.6648ZM112.663 204.789V215.871H146.802V204.789H112.663ZM180.011 204.789V215.871H216.316C216.316 210.64 214.145 204.789 214.145 204.789H180.011ZM247.039 204.789V215.871H281.178V204.789H247.039ZM295.129 204.789L299.129 215.871H330.555L334.587 204.789H295.129ZM348.201 204.789V215.871H382.34V204.789H348.201ZM0.630582 226.343V237.44H79.4535V226.343H0.630582ZM90.0132 226.343V237.44H211.364C213.918 234.897 215.38 226.343 215.38 226.343H90.0132ZM224.999 226.343V237.44H281.158V226.343H224.999ZM302.892 226.343L307.006 237.44H322.998L326.859 226.343H302.892ZM348.201 226.343V237.44H404.995V226.343H348.201ZM0.630582 247.912V258.994H79.4535V247.912H0.630582ZM90.0132 247.912V258.973H175.664C190.86 258.973 202.335 247.912 202.335 247.912H90.0132ZM224.999 247.912V258.994H281.158V247.912H224.999ZM310.697 247.912L314.651 258.963L315.333 258.978L319.349 247.917L310.697 247.912ZM348.206 247.912V258.994H405V247.912H348.206Z" fill="white"/>
</svg>
